<mxfile host="app.diagrams.net" modified="2022-03-16T03:20:41.962Z" agent="5.0 (Macintosh; Intel Mac OS X 10_15_7) AppleWebKit/537.36 (KHTML, like Gecko) Chrome/99.0.4844.51 Safari/537.36" etag="jAqsTfS-eXSSly6wkE5J" version="17.1.3" type="github">
  <diagram id="cj4baUlHVnVCXOmQPuqN" name="Page-1">
    <mxGraphModel dx="946" dy="545" grid="1" gridSize="10" guides="1" tooltips="1" connect="1" arrows="1" fold="1" page="1" pageScale="1" pageWidth="827" pageHeight="1169" math="0" shadow="0">
      <root>
        <mxCell id="0" />
        <mxCell id="1" parent="0" />
        <mxCell id="LLAAxi6rzCb25XloLpVb-8" style="edgeStyle=orthogonalEdgeStyle;rounded=0;orthogonalLoop=1;jettySize=auto;html=1;exitX=0.5;exitY=1;exitDx=0;exitDy=0;entryX=0;entryY=0.5;entryDx=0;entryDy=0;" edge="1" parent="1" source="LLAAxi6rzCb25XloLpVb-1" target="LLAAxi6rzCb25XloLpVb-7">
          <mxGeometry relative="1" as="geometry" />
        </mxCell>
        <mxCell id="LLAAxi6rzCb25XloLpVb-1" value="midtrans&lt;br&gt;雇主交的钱" style="rounded=0;whiteSpace=wrap;html=1;" vertex="1" parent="1">
          <mxGeometry x="80" y="90" width="120" height="60" as="geometry" />
        </mxCell>
        <mxCell id="LLAAxi6rzCb25XloLpVb-2" value="flip&lt;br&gt;kupu财务充值的钱" style="rounded=0;whiteSpace=wrap;html=1;" vertex="1" parent="1">
          <mxGeometry x="320" y="90" width="120" height="60" as="geometry" />
        </mxCell>
        <mxCell id="LLAAxi6rzCb25XloLpVb-3" value="kupu balance&lt;br&gt;工资收入的钱&lt;br&gt;offer退款的钱" style="rounded=0;whiteSpace=wrap;html=1;" vertex="1" parent="1">
          <mxGeometry x="520" y="90" width="120" height="60" as="geometry" />
        </mxCell>
        <mxCell id="LLAAxi6rzCb25XloLpVb-9" style="edgeStyle=orthogonalEdgeStyle;rounded=0;orthogonalLoop=1;jettySize=auto;html=1;exitX=1;exitY=0.5;exitDx=0;exitDy=0;entryX=0.5;entryY=1;entryDx=0;entryDy=0;" edge="1" parent="1" source="LLAAxi6rzCb25XloLpVb-7" target="LLAAxi6rzCb25XloLpVb-2">
          <mxGeometry relative="1" as="geometry" />
        </mxCell>
        <mxCell id="LLAAxi6rzCb25XloLpVb-7" value="银行卡" style="rounded=0;whiteSpace=wrap;html=1;" vertex="1" parent="1">
          <mxGeometry x="210" y="240" width="90" height="40" as="geometry" />
        </mxCell>
      </root>
    </mxGraphModel>
  </diagram>
</mxfile>
